<svg version="1.1" id="Layer_1" xmlns="http://www.w3.org/2000/svg" xmlns:xlink="http://www.w3.org/1999/xlink" x="0px" y="0px"
	 width="100%" viewBox="0 0 800 300" enable-background="new 0 0 800 300" xml:space="preserve">
<path fill="#FEFEFE" opacity="1.000000" stroke="none" 
	d="
M494.000000,301.000000 
	C329.370636,301.000000 165.241272,301.000000 1.055951,301.000000 
	C1.055951,201.060043 1.055951,101.120056 1.055951,1.090033 
	C267.546021,1.090033 534.092102,1.090033 800.819092,1.090033 
	C800.819092,100.999741 800.819092,200.999832 800.819092,301.000000 
	C698.786743,301.000000 596.643372,301.000000 494.000000,301.000000 
M132.500046,168.160858 
	C117.506569,168.161926 102.511192,168.011368 87.520073,168.199921 
	C65.564247,168.476074 51.894596,182.805542 52.278893,204.690796 
	C52.422176,212.850677 52.258720,221.015564 52.317711,229.177551 
	C52.333233,231.324997 52.074013,233.745087 52.935268,235.570953 
	C57.796329,245.876419 62.960365,256.038971 68.454231,267.124115 
	C69.885864,264.835907 70.699501,263.469849 71.575615,262.145142 
	C82.568947,245.522858 87.681778,227.519394 85.228043,207.455002 
	C84.496147,201.470306 85.561417,200.943130 91.654411,200.939423 
	C114.478127,200.925522 137.302475,201.037231 160.125397,200.902237 
	C182.488571,200.769974 200.488205,183.793472 200.981949,161.475647 
	C201.497589,138.167648 201.425980,114.825691 200.809601,91.519775 
	C200.245468,70.189499 183.108749,53.349762 161.892838,52.986256 
	C138.244781,52.581078 114.577881,52.584229 90.930717,53.026241 
	C69.890839,53.419525 52.476429,71.519554 52.336304,92.552216 
	C52.182034,115.707733 52.307713,138.865173 52.344925,162.021729 
	C52.346569,163.044998 52.681248,164.067749 52.977951,165.758194 
	C62.468704,157.565689 73.025291,153.663345 85.123398,152.796768 
	C85.123398,150.955383 85.123436,149.323715 85.123383,147.692032 
	C85.122833,131.032379 85.101677,114.372681 85.130203,97.713081 
	C85.145042,89.047737 88.305069,85.849968 96.780235,85.855766 
	C116.771744,85.869438 136.763260,85.894493 156.754715,85.941170 
	C165.414017,85.961388 168.027969,88.571083 168.051346,97.311905 
	C168.104401,117.136452 168.107742,136.961151 168.123123,156.785782 
	C168.129242,164.672318 164.927475,168.094223 156.989120,168.228729 
	C149.162064,168.361359 141.329956,168.195663 132.500046,168.160858 
M393.701630,181.009842 
	C403.590668,136.996292 366.813446,101.442802 324.509888,109.322159 
	C294.869659,114.842873 275.788300,139.995178 277.027649,171.031387 
	C278.093262,197.717880 301.114136,222.095917 327.913971,224.917740 
	C359.138489,228.205475 385.817444,210.637772 393.701630,181.009842 
M703.657410,265.170166 
	C722.575684,214.213333 741.493896,163.256516 760.636475,111.695404 
	C750.886047,111.695404 742.070312,111.915367 733.273926,111.598686 
	C729.136475,111.449738 727.263550,112.646675 725.930908,116.766968 
	C719.051697,138.037292 711.780334,159.180801 704.399658,181.099289 
	C703.652405,179.197327 703.131592,178.005295 702.710144,176.779099 
	C695.747375,156.521164 688.834473,136.245880 681.772949,116.022476 
	C681.208374,114.405449 679.672363,111.932877 678.527527,111.899124 
	C667.788818,111.582581 657.036987,111.711273 645.860229,111.711273 
	C646.556213,113.767021 647.008606,115.173523 647.506531,116.563728 
	C659.824646,150.958237 672.108032,185.365341 684.535278,219.720398 
	C685.688477,222.908340 685.595398,225.546036 684.376038,228.705078 
	C678.157776,244.815842 672.200745,261.027527 666.176636,277.212921 
	C665.637512,278.661255 665.272766,280.174469 664.723511,282.002106 
	C670.514221,282.002106 675.671570,282.053680 680.827393,281.988007 
	C686.296936,281.918365 693.243774,283.727325 696.830505,281.062195 
	C700.645325,278.227631 701.276367,271.108215 703.657410,265.170166 
M579.997070,104.401436 
	C579.997070,106.685135 579.997070,108.968834 579.997070,111.838211 
	C574.139893,111.838211 568.752380,111.838211 563.421631,111.838211 
	C563.421631,120.661903 563.421631,128.888611 563.421631,137.498169 
	C569.002014,137.498169 574.276550,137.498169 579.990479,137.498169 
	C579.990479,165.792770 579.990479,193.702301 579.990479,221.793762 
	C590.846313,221.793762 601.255310,221.793762 612.158569,221.793762 
	C612.158569,193.692612 612.158569,165.794388 612.158569,137.402985 
	C622.733521,137.402985 632.824707,137.402985 642.998169,137.402985 
	C642.998169,128.643829 642.998169,120.386604 642.998169,111.627625 
	C632.678833,111.627625 622.603149,111.627625 611.760010,111.627625 
	C612.152161,103.677650 612.040466,96.188385 613.030640,88.847740 
	C613.876038,82.580627 618.053894,79.217842 624.248779,79.967773 
	C629.067932,80.551163 633.670105,82.927032 639.198608,84.785164 
	C643.514648,78.798668 648.706421,71.597427 654.043823,64.194260 
	C641.445374,52.981682 627.023621,49.659382 611.121338,52.733665 
	C595.575623,55.738995 585.480591,65.257851 581.979553,80.647285 
	C580.304443,88.010521 580.596130,95.821205 579.997070,104.401436 
M446.717957,222.922485 
	C465.005371,227.693344 481.916290,226.010071 496.764771,212.482620 
	C492.431335,205.236313 488.285553,198.303833 484.282501,191.610046 
	C480.621460,193.363449 477.626373,195.222107 474.371002,196.278900 
	C463.876617,199.685684 456.927368,195.135712 455.694244,184.281891 
	C455.450439,182.135971 455.388519,179.960632 455.380005,177.798294 
	C455.345856,169.132477 455.365723,160.466431 455.365662,151.800476 
	C455.365601,147.198792 455.365631,142.597107 455.365631,137.426788 
	C465.913239,137.426788 475.815552,137.426788 485.653381,137.426788 
	C485.653381,128.563171 485.653381,120.292053 485.653381,111.438988 
	C475.493347,111.438988 465.604736,111.438988 455.239960,111.438988 
	C455.239960,100.764854 455.239960,90.668304 455.239960,80.627846 
	C444.314148,80.627846 433.897125,80.627846 423.051575,80.627846 
	C423.051575,91.054794 423.051575,101.149567 423.051575,111.792831 
	C417.234833,111.792831 411.834503,111.792831 406.381165,111.792831 
	C406.381165,120.595215 406.381165,128.834595 406.381165,137.618195 
	C412.036682,137.618195 417.438568,137.618195 423.149261,137.618195 
	C423.149261,139.963654 423.147156,141.774033 423.149567,143.584412 
	C423.168121,157.583023 422.871307,171.591095 423.288879,185.577805 
	C423.781860,202.093201 429.163513,215.970505 446.717957,222.922485 
M256.402130,111.500168 
	C256.402130,91.724922 256.402130,71.949684 256.402130,51.949368 
	C245.495483,51.949368 235.091171,51.949368 224.527954,51.949368 
	C224.527954,108.732567 224.527954,165.262421 224.527954,221.720062 
	C235.313599,221.720062 245.753906,221.720062 256.402191,221.720062 
	C256.402191,185.125198 256.402191,148.812683 256.402130,111.500168 
M512.829956,127.501984 
	C512.829956,158.913452 512.829956,190.324921 512.829956,221.707977 
	C523.861633,221.707977 534.268066,221.707977 544.727783,221.707977 
	C544.727783,184.996185 544.727783,148.576752 544.727783,111.928543 
	C534.101562,111.928543 523.702332,111.928543 512.829956,111.928543 
	C512.829956,116.924187 512.829956,121.713364 512.829956,127.501984 
M150.843140,152.672913 
	C151.515472,151.305298 152.757111,149.944016 152.772369,148.569107 
	C152.931259,134.260834 152.854309,119.950134 152.937775,105.640671 
	C152.957611,102.238937 151.550842,100.925385 148.135147,100.950981 
	C133.992569,101.056969 119.847969,101.077400 105.705894,100.942184 
	C101.857224,100.905396 100.269272,102.359581 100.292198,106.194824 
	C100.374748,120.004944 100.395401,133.816452 100.277664,147.626053 
	C100.245224,151.431564 101.573555,152.966217 105.526337,152.920502 
	C120.333313,152.749298 135.143158,152.826965 150.843140,152.672913 
M510.884094,69.760620 
	C508.595215,77.696365 510.257416,84.581299 516.622681,89.990860 
	C522.677307,95.136429 529.719421,95.745049 536.711914,92.697433 
	C543.680908,89.660011 547.200928,83.769226 547.485352,76.107941 
	C547.805969,67.469322 542.096497,59.786457 533.800232,57.603909 
	C524.084229,55.047859 515.984741,59.096676 510.884094,69.760620 
z"/>
<path fill="#112A48" opacity="1.000000" stroke="none" 
	d="
M133.000061,168.160858 
	C141.329956,168.195663 149.162064,168.361359 156.989120,168.228729 
	C164.927475,168.094223 168.129242,164.672318 168.123123,156.785782 
	C168.107742,136.961151 168.104401,117.136452 168.051346,97.311905 
	C168.027969,88.571083 165.414017,85.961388 156.754715,85.941170 
	C136.763260,85.894493 116.771744,85.869438 96.780235,85.855766 
	C88.305069,85.849968 85.145042,89.047737 85.130203,97.713081 
	C85.101677,114.372681 85.122833,131.032379 85.123383,147.692032 
	C85.123436,149.323715 85.123398,150.955383 85.123398,152.796768 
	C73.025291,153.663345 62.468704,157.565689 52.977951,165.758194 
	C52.681248,164.067749 52.346569,163.044998 52.344925,162.021729 
	C52.307713,138.865173 52.182034,115.707733 52.336304,92.552216 
	C52.476429,71.519554 69.890839,53.419525 90.930717,53.026241 
	C114.577881,52.584229 138.244781,52.581078 161.892838,52.986256 
	C183.108749,53.349762 200.245468,70.189499 200.809601,91.519775 
	C201.425980,114.825691 201.497589,138.167648 200.981949,161.475647 
	C200.488205,183.793472 182.488571,200.769974 160.125397,200.902237 
	C137.302475,201.037231 114.478127,200.925522 91.654411,200.939423 
	C85.561417,200.943130 84.496147,201.470306 85.228043,207.455002 
	C87.681778,227.519394 82.568947,245.522858 71.575615,262.145142 
	C70.699501,263.469849 69.885864,264.835907 68.454231,267.124115 
	C62.960365,256.038971 57.796329,245.876419 52.935268,235.570953 
	C52.074013,233.745087 52.333233,231.324997 52.317711,229.177551 
	C52.258720,221.015564 52.422176,212.850677 52.278893,204.690796 
	C51.894596,182.805542 65.564247,168.476074 87.520073,168.199921 
	C102.511192,168.011368 117.506569,168.161926 133.000061,168.160858 
z"/>
<path fill="#112A47" opacity="1.000000" stroke="none" 
	d="
M393.556274,181.399414 
	C385.817444,210.637772 359.138489,228.205475 327.913971,224.917740 
	C301.114136,222.095917 278.093262,197.717880 277.027649,171.031387 
	C275.788300,139.995178 294.869659,114.842873 324.509888,109.322159 
	C366.813446,101.442802 403.590668,136.996292 393.556274,181.399414 
M310.068573,171.989349 
	C312.008514,183.055435 317.615051,191.305145 328.947968,193.943802 
	C349.501984,198.729462 364.362732,184.525833 362.200287,162.615707 
	C360.888916,149.329056 351.387512,139.692413 338.857056,138.940247 
	C324.035828,138.050568 313.164734,145.832535 310.458801,159.680252 
	C309.737335,163.372620 310.126038,167.281921 310.068573,171.989349 
z"/>
<path fill="#112A47" opacity="1.000000" stroke="none" 
	d="
M703.477539,265.514954 
	C701.276367,271.108215 700.645325,278.227631 696.830505,281.062195 
	C693.243774,283.727325 686.296936,281.918365 680.827393,281.988007 
	C675.671570,282.053680 670.514221,282.002106 664.723511,282.002106 
	C665.272766,280.174469 665.637512,278.661255 666.176636,277.212921 
	C672.200745,261.027527 678.157776,244.815842 684.376038,228.705078 
	C685.595398,225.546036 685.688477,222.908340 684.535278,219.720398 
	C672.108032,185.365341 659.824646,150.958237 647.506531,116.563728 
	C647.008606,115.173523 646.556213,113.767021 645.860229,111.711273 
	C657.036987,111.711273 667.788818,111.582581 678.527527,111.899124 
	C679.672363,111.932877 681.208374,114.405449 681.772949,116.022476 
	C688.834473,136.245880 695.747375,156.521164 702.710144,176.779099 
	C703.131592,178.005295 703.652405,179.197327 704.399658,181.099289 
	C711.780334,159.180801 719.051697,138.037292 725.930908,116.766968 
	C727.263550,112.646675 729.136475,111.449738 733.273926,111.598686 
	C742.070312,111.915367 750.886047,111.695404 760.636475,111.695404 
	C741.493896,163.256516 722.575684,214.213333 703.477539,265.514954 
z"/>
<path fill="#112947" opacity="1.000000" stroke="none" 
	d="
M579.997070,103.915329 
	C580.596130,95.821205 580.304443,88.010521 581.979553,80.647285 
	C585.480591,65.257851 595.575623,55.738995 611.121338,52.733665 
	C627.023621,49.659382 641.445374,52.981682 654.043823,64.194260 
	C648.706421,71.597427 643.514648,78.798668 639.198608,84.785164 
	C633.670105,82.927032 629.067932,80.551163 624.248779,79.967773 
	C618.053894,79.217842 613.876038,82.580627 613.030640,88.847740 
	C612.040466,96.188385 612.152161,103.677650 611.760010,111.627625 
	C622.603149,111.627625 632.678833,111.627625 642.998169,111.627625 
	C642.998169,120.386604 642.998169,128.643829 642.998169,137.402985 
	C632.824707,137.402985 622.733521,137.402985 612.158569,137.402985 
	C612.158569,165.794388 612.158569,193.692612 612.158569,221.793762 
	C601.255310,221.793762 590.846313,221.793762 579.990479,221.793762 
	C579.990479,193.702301 579.990479,165.792770 579.990479,137.498169 
	C574.276550,137.498169 569.002014,137.498169 563.421631,137.498169 
	C563.421631,128.888611 563.421631,120.661903 563.421631,111.838211 
	C568.752380,111.838211 574.139893,111.838211 579.997070,111.838211 
	C579.997070,108.968834 579.997070,106.685135 579.997070,103.915329 
z"/>
<path fill="#122B48" opacity="1.000000" stroke="none" 
	d="
M446.342255,222.804169 
	C429.163513,215.970505 423.781860,202.093201 423.288879,185.577805 
	C422.871307,171.591095 423.168121,157.583023 423.149567,143.584412 
	C423.147156,141.774033 423.149261,139.963654 423.149261,137.618195 
	C417.438568,137.618195 412.036682,137.618195 406.381165,137.618195 
	C406.381165,128.834595 406.381165,120.595215 406.381165,111.792831 
	C411.834503,111.792831 417.234833,111.792831 423.051575,111.792831 
	C423.051575,101.149567 423.051575,91.054794 423.051575,80.627846 
	C433.897125,80.627846 444.314148,80.627846 455.239960,80.627846 
	C455.239960,90.668304 455.239960,100.764854 455.239960,111.438988 
	C465.604736,111.438988 475.493347,111.438988 485.653381,111.438988 
	C485.653381,120.292053 485.653381,128.563171 485.653381,137.426788 
	C475.815552,137.426788 465.913239,137.426788 455.365631,137.426788 
	C455.365631,142.597107 455.365601,147.198792 455.365662,151.800476 
	C455.365723,160.466431 455.345856,169.132477 455.380005,177.798294 
	C455.388519,179.960632 455.450439,182.135971 455.694244,184.281891 
	C456.927368,195.135712 463.876617,199.685684 474.371002,196.278900 
	C477.626373,195.222107 480.621460,193.363449 484.282501,191.610046 
	C488.285553,198.303833 492.431335,205.236313 496.764771,212.482620 
	C481.916290,226.010071 465.005371,227.693344 446.342255,222.804169 
z"/>
<path fill="#112A48" opacity="1.000000" stroke="none" 
	d="
M256.402161,112.000168 
	C256.402191,148.812683 256.402191,185.125198 256.402191,221.720062 
	C245.753906,221.720062 235.313599,221.720062 224.527954,221.720062 
	C224.527954,165.262421 224.527954,108.732567 224.527954,51.949368 
	C235.091171,51.949368 245.495483,51.949368 256.402130,51.949368 
	C256.402130,71.949684 256.402130,91.724922 256.402161,112.000168 
z"/>
<path fill="#102946" opacity="1.000000" stroke="none" 
	d="
M512.829956,127.002258 
	C512.829956,121.713364 512.829956,116.924187 512.829956,111.928543 
	C523.702332,111.928543 534.101562,111.928543 544.727783,111.928543 
	C544.727783,148.576752 544.727783,184.996185 544.727783,221.707977 
	C534.268066,221.707977 523.861633,221.707977 512.829956,221.707977 
	C512.829956,190.324921 512.829956,158.913452 512.829956,127.002258 
z"/>
<path fill="#3684D3" opacity="1.000000" stroke="none" 
	d="
M150.397522,152.742126 
	C135.143158,152.826965 120.333313,152.749298 105.526337,152.920502 
	C101.573555,152.966217 100.245224,151.431564 100.277664,147.626053 
	C100.395401,133.816452 100.374748,120.004944 100.292198,106.194824 
	C100.269272,102.359581 101.857224,100.905396 105.705894,100.942184 
	C119.847969,101.077400 133.992569,101.056969 148.135147,100.950981 
	C151.550842,100.925385 152.957611,102.238937 152.937775,105.640671 
	C152.854309,119.950134 152.931259,134.260834 152.772369,148.569107 
	C152.757111,149.944016 151.515472,151.305298 150.397522,152.742126 
z"/>
<path fill="#122A48" opacity="1.000000" stroke="none" 
	d="
M510.970642,69.366768 
	C515.984741,59.096676 524.084229,55.047859 533.800232,57.603909 
	C542.096497,59.786457 547.805969,67.469322 547.485352,76.107941 
	C547.200928,83.769226 543.680908,89.660011 536.711914,92.697433 
	C529.719421,95.745049 522.677307,95.136429 516.622681,89.990860 
	C510.257416,84.581299 508.595215,77.696365 510.970642,69.366768 
z"/>
<path fill="#FDFDFD" opacity="1.000000" stroke="none" 
	d="
M310.036804,171.540482 
	C310.126038,167.281921 309.737335,163.372620 310.458801,159.680252 
	C313.164734,145.832535 324.035828,138.050568 338.857056,138.940247 
	C351.387512,139.692413 360.888916,149.329056 362.200287,162.615707 
	C364.362732,184.525833 349.501984,198.729462 328.947968,193.943802 
	C317.615051,191.305145 312.008514,183.055435 310.036804,171.540482 
z"/>
</svg>